#!OML:ASF F:\VICON\USERDATA\INSTALL\rory3\rory3.ASF
:FULLY-SPECIFIED
:DEGREES
1597
root 0.331842 16.4934 -0.366026 -1.33225 38.5058 -1.41612
lowerback -0.265561 3.56566 2.02623
upperback -5.80586 5.07815 3.26397
thorax -6.00878 2.5493 2.00612
lowerneck -6.89428 -10.8978 -17.3318
upperneck 22.0183 -16.3033 16.1035
head 11.0509 -7.47534 6.56241
rclavicle -6.71892e-014 -2.62396e-014
rhumerus -15.2737 18.7436 -96.2343
rradius 115.255
rwrist 33.9508
rhand 46.4729 7.59301
rfingers 7.12502
rthumb 67.4909 5.19944
lclavicle -6.71892e-014 -2.62396e-014
lhumerus -14.2445 -7.28076 96.3664
lradius 118.194
lwrist -16.2479
lhand 32.6695 44.1633
lfingers 7.12502
lthumb 56.0896 61.4834
rfemur -7.76069 -22.4746 18.9354
rtibia 39.9711
rfoot -29.0139 -19.216
rtoes -13.1763
lfemur -23.5308 -26.986 -16.9815
ltibia 44.3083
lfoot -19.8672 -14.1086
ltoes -9.18291
1598
root 0.330094 16.4793 -0.3708 -1.30783 38.2743 -1.37175
lowerback -0.187435 3.48655 1.85777
upperback -5.76903 4.97524 3.38409
thorax -6.03762 2.51022 2.22515
lowerneck -6.86628 -10.8138 -17.5565
upperneck 22.0201 -16.1625 16.1475
head 11.0438 -7.42903 6.64293
rclavicle 1.05952e-013 1.11319e-014
rhumerus -15.4797 18.9627 -96.2966
rradius 115.204
rwrist 34.0922
rhand 46.552 7.54807
rfingers 7.12502
rthumb 67.5491 5.28417
lclavicle 1.05952e-013 1.11319e-014
lhumerus -14.2036 -6.98818 96.4505
lradius 117.933
lwrist -16.3056
lhand 32.8398 44.2702
lfingers 7.12502
lthumb 56.2404 61.472
rfemur -7.92199 -22.4293 18.8876
rtibia 40.2593
rfoot -29.1514 -19.1078
rtoes -14.1556
lfemur -23.6364 -26.9405 -17.028
ltibia 44.5708
lfoot -20.0289 -13.9278
ltoes -9.39186
1599
root 0.328936 16.4685 -0.374036 -1.21815 38.0497 -1.28253
lowerback -0.112181 3.45417 1.67458
upperback -5.75918 4.9291 3.39876
thorax -6.08558 2.49646 2.33957
lowerneck -6.88959 -10.7901 -17.4608
upperneck 22.0674 -16.1272 16.0735
head 11.0418 -7.41021 6.6056
rclavicle -1.49089e-014 -4.37326e-014
rhumerus -15.6573 18.9588 -96.4539
rradius 115.144
rwrist 34.2487
rhand 46.6055 7.299
rfingers 7.12502
rthumb 67.5883 5.12307
lclavicle -1.49089e-014 -4.37326e-014
lhumerus -14.2901 -6.96117 96.5319
lradius 117.828
lwrist -16.501
lhand 32.841 44.4622
lfingers 7.12502
lthumb 56.2414 61.6632
rfemur -8.15081 -22.3515 18.8165
rtibia 40.5409
rfoot -29.2028 -19.0414
rtoes -14.4702
lfemur -23.7944 -26.9185 -17.0877
ltibia 44.8457
lfoot -20.1612 -13.6743
ltoes -9.63838
1600
root 0.328806 16.4584 -0.3769 -1.29756 37.7609 -1.45187
lowerback -0.0235214 3.47989 1.80391
upperback -5.7699 4.9698 3.37159
thorax -6.13569 2.50828 2.23162
lowerneck -6.86808 -10.7853 -17.1735
upperneck 22.0843 -16.1437 15.97
head 11.0084 -7.40379 6.51762
rclavicle 4.57205e-014 2.3059e-014
rhumerus -15.7518 18.8248 -96.5616
rradius 115.056
rwrist 34.4022
rhand 46.5198 7.13535
rfingers 7.12502
rthumb 67.5254 4.81852
lclavicle 4.57205e-014 2.3059e-014
lhumerus -14.408 -7.09772 96.5418
lradius 117.743
lwrist -16.763
lhand 33.0998 44.4666
lfingers 7.12502
lthumb 56.4701 61.4856
rfemur -8.35867 -22.2559 18.9676
rtibia 40.7998
rfoot -29.2244 -18.9832
rtoes -14.7314
lfemur -23.9324 -26.8889 -16.9238
ltibia 45.1325
lfoot -20.4024 -13.4119
ltoes -9.88574
1601
root 0.328845 16.4465 -0.379079 -1.40894 37.473 -1.61788
lowerback 0.045226 3.50684 1.9193
upperback -5.7376 5.00918 3.35959
thorax -6.13097 2.52065 2.14974
lowerneck -6.94551 -10.7875 -16.9827
upperneck 22.2146 -16.1638 15.8955
head 11.05 -7.39749 6.45527
rclavicle -1.0635e-013 -2.46493e-014
rhumerus -15.7915 18.6443 -96.6199
rradius 114.969
rwrist 34.586
rhand 46.7026 7.15744
rfingers 7.12502
rthumb 67.6595 5.14214
lclavicle -1.0635e-013 -2.46493e-014
lhumerus -14.4528 -7.33132 96.5317
lradius 117.593
lwrist -16.7856
lhand 32.8818 44.3503
lfingers 7.12502
lthumb 56.2775 61.5228
rfemur -8.5247 -22.1247 19.1038
rtibia 41.0616
rfoot -29.3481 -18.8413
rtoes -14.6557
lfemur -24.0103 -26.8387 -16.7891
ltibia 45.4093
lfoot -20.6369 -13.2081
ltoes -10.0622
1602
root 0.330752 16.4341 -0.379074 -1.39438 37.2505 -1.65569
lowerback 0.00736475 3.47789 1.87446
upperback -5.7173 4.96576 3.36386
thorax -6.09042 2.50157 2.18439
lowerneck -6.97671 -10.7478 -16.8117
upperneck 22.3304 -16.1119 15.7725
head 11.0596 -7.36739 6.39198
rclavicle 1.33385e-013 3.81667e-014
rhumerus -15.8654 18.4577 -96.7765
rradius 114.906
rwrist 34.8359
rhand 46.7336 7.14673
rfingers 7.12502
rthumb 67.6821 5.18283
lclavicle 1.33385e-013 3.81667e-014
lhumerus -14.5274 -7.47468 96.4959
lradius 117.422
lwrist -16.6321
lhand 32.3514 44.0749
lfingers 7.12502
lthumb 55.8076 61.6128
rfemur -8.71202 -22.127 19.1133
rtibia 41.3215
rfoot -29.4659 -18.6566
rtoes -14.4706
lfemur -24.1265 -26.8323 -16.7538
ltibia 45.6618
lfoot -20.7658 -13.0902
ltoes -9.80248
1603
root 0.334154 16.4236 -0.377187 -1.3051 37.0115 -1.60577
lowerback -0.0419959 3.46977 1.78678
upperback -5.73261 4.94777 3.32183
thorax -6.08102 2.4958 2.19288
lowerneck -6.98213 -10.7348 -16.691
upperneck 22.503 -16.1168 15.7041
head 11.1075 -7.36231 6.35111
rclavicle 3.22031e-014 -9.54166e-015
rhumerus -16.0246 18.2381 -96.9464
rradius 114.9
rwrist 34.9853
rhand 46.572 6.79724
rfingers 7.12502
rthumb 67.5638 4.56624
lclavicle 3.22031e-014 -9.54166e-015
lhumerus -14.6343 -7.5583 96.4218
lradius 117.458
lwrist -16.5361
lhand 32.2507 44.0853
lfingers 7.12502
lthumb 55.7183 61.6913
rfemur -8.90963 -22.1406 19.0473
rtibia 41.565
rfoot -29.6048 -18.4352
rtoes -14.4646
lfemur -24.226 -26.8591 -16.7937
ltibia 45.8744
lfoot -20.8272 -12.8701
ltoes -9.435
1604
root 0.337453 16.4163 -0.374375 -1.15585 36.7131 -1.46741
lowerback 0.0182599 3.48598 1.66031
upperback -5.81443 4.96599 3.22234
thorax -6.20425 2.50741 2.15212
lowerneck -7.00677 -10.7215 -16.6057
upperneck 22.7817 -16.1436 15.6968
head 11.2132 -7.3613 6.33885
rclavicle -5.70512e-014 -2.94201e-014
rhumerus -16.3064 18.0263 -97.1985
rradius 114.882
rwrist 35.0727
rhand 46.4091 6.68758
rfingers 7.12502
rthumb 67.4439 4.19014
lclavicle -5.70512e-014 -2.94201e-014
lhumerus -14.8354 -7.67359 96.3435
lradius 117.583
lwrist -16.4691
lhand 32.4328 44.1998
lfingers 7.12502
lthumb 55.8799 61.6823
rfemur -9.1158 -22.0483 18.9279
rtibia 41.7726
rfoot -29.714 -18.221
rtoes -14.1143
lfemur -24.2906 -26.9227 -16.902
ltibia 46.0342
lfoot -20.9658 -12.5234
ltoes -9.51564
1605
root 0.342449 16.4116 -0.371171 -1.12018 36.4439 -1.45703
lowerback 0.138231 3.47007 1.63071
upperback -5.90321 4.9501 3.17254
thorax -6.36507 2.49855 2.10731
lowerneck -7.1141 -10.7266 -16.5157
upperneck 23.1417 -16.1835 15.6299
head 11.363 -7.36558 6.29927
rclavicle 2.38542e-015 -3.4191e-014
rhumerus -16.5845 17.8799 -97.406
rradius 114.896
rwrist 35.1577
rhand 46.5278 6.93877
rfingers 7.12502
rthumb 67.5313 4.63517
lclavicle 2.38542e-015 -3.4191e-014
lhumerus -14.948 -7.68054 96.3283
lradius 117.604
lwrist -16.3761
lhand 32.7716 44.1791
lfingers 7.12502
lthumb 56.18 61.4284
rfemur -9.22557 -22.0281 18.8829
rtibia 41.9303
rfoot -29.761 -18.0398
rtoes -13.8397
lfemur -24.2722 -26.962 -16.937
ltibia 46.1401
lfoot -21.1458 -12.2205
ltoes -9.69209
1606
root 0.350301 16.4086 -0.366321 -1.13809 36.1745 -1.45528
lowerback 0.122262 3.46805 1.56569
upperback -5.88644 4.94318 3.17688
thorax -6.34364 2.49854 2.14969
lowerneck -7.16433 -10.7748 -16.4167
upperneck 23.3409 -16.2545 15.4899
head 11.4387 -7.39606 6.22024
rclavicle 4.53229e-014 2.70347e-014
rhumerus -16.6733 17.835 -97.4703
rradius 114.93
rwrist 35.1289
rhand 46.6631 6.95237
rfingers 7.12502
rthumb 67.6305 4.87154
lclavicle 4.53229e-014 2.70347e-014
lhumerus -14.8689 -7.64286 96.3727
lradius 117.575
lwrist -16.2413
lhand 32.9032 44.0872
lfingers 7.12502
lthumb 56.2964 61.2447
rfemur -9.23396 -22.0686 18.7875
rtibia 42.0525
rfoot -29.8292 -17.8149
rtoes -13.9433
lfemur -24.1657 -26.958 -17.0043
ltibia 46.2011
lfoot -21.262 -11.9663
ltoes -9.45988
1607
root 0.358126 16.4098 -0.357478 -1.14971 35.8595 -1.36471
lowerback 0.0357666 3.4738 1.38395
upperback -5.81419 4.93591 3.17083
thorax -6.23128 2.50415 2.25199
lowerneck -7.10365 -10.7937 -16.3026
upperneck 23.3975 -16.2946 15.4041
head 11.4357 -7.41455 6.16587
rclavicle 2.14687e-014 -1.59028e-014
rhumerus -16.7486 17.8172 -97.6002
rradius 114.943
rwrist 35.0821
rhand 46.5103 6.95955
rfingers 7.12502
rthumb 67.5184 4.62722
lclavicle 2.14687e-014 -1.59028e-014
lhumerus -14.7353 -7.65261 96.3381
lradius 117.704
lwrist -16.0988
lhand 32.9588 44.3809
lfingers 7.12502
lthumb 56.3456 61.4994
rfemur -9.20179 -22.0008 18.6117
rtibia 42.1376
rfoot -29.9204 -17.5305
rtoes -13.6342
lfemur -23.9626 -26.9468 -17.1742
ltibia 46.2422
lfoot -21.3548 -11.6417
ltoes -9.28809
1608
root 0.361532 16.4105 -0.348903 -1.11951 35.4862 -1.31247
lowerback -0.010329 3.47942 1.26638
upperback -5.80679 4.93427 3.13271
thorax -6.20304 2.508 2.28067
lowerneck -7.06428 -10.7525 -16.129
upperneck 23.4881 -16.2547 15.3073
head 11.4269 -7.39115 6.11265
rclavicle -4.23411e-014 4.77083e-015
rhumerus -16.8472 17.8116 -97.8049
rradius 114.978
rwrist 34.9396
rhand 46.4667 6.88021
rfingers 7.12502
rthumb 67.4863 4.47662
lclavicle -4.23411e-014 4.77083e-015
lhumerus -14.6122 -7.6761 96.193
lradius 117.926
lwrist -16.0248
lhand 33.0077 44.6731
lfingers 7.12502
lthumb 56.3887 61.7572
rfemur -9.27637 -21.7958 18.5522
rtibia 42.2094
rfoot -29.9929 -17.3404
rtoes -11.9375
lfemur -23.8552 -26.8677 -17.2508
ltibia 46.2989
lfoot -21.4365 -11.3602
ltoes -9.33591
1609
root 0.364898 16.4049 -0.343991 -1.13768 35.1344 -1.39291
lowerback -1.82822e-005 3.48946 1.28096
upperback -5.86525 4.95158 3.13406
thorax -6.27094 2.51601 2.27067
lowerneck -7.02424 -10.7081 -16.0042
upperneck 23.6402 -16.2046 15.1894
head 11.4425 -7.3681 6.06308
rclavicle 4.17448e-014 -2.46493e-014
rhumerus -17.0669 17.7747 -97.9421
rradius 115.044
rwrist 34.7753
rhand 46.3361 6.87859
rfingers 7.12502
rthumb 67.39 4.26266
lclavicle 4.17448e-014 -2.46493e-014
lhumerus -14.5968 -7.62261 96.1016
lradius 118.051
lwrist -16.1126
lhand 33.1394 44.6701
lfingers 7.12502
lthumb 56.505 61.6611
rfemur -9.32595 -21.6601 18.6307
rtibia 42.2638
rfoot -29.9941 -17.2824
rtoes -13.7747
lfemur -23.8384 -26.7644 -17.1851
ltibia 46.3925
lfoot -21.5203 -11.144
ltoes -9.27372
